C:\Users\u0088756\Documents\FWO\Software\Misc\MuscleTendonEstimator\Examples\Example_trackUS\Data\trial_2_emg.mot
nRows=117
nColumns=4

name C:\Users\u0088756\Documents\FWO\Software\Misc\MuscleTendonEstimator\Examples\Example_trackUS\Data\trial_2_emg.mot
datacolumns 4
datarows 117
range 15.0000000000 15.1160000000
endheader
time	GastrocnemiusMedialis	Soleus	VastusLateralis
       15.0000000000	        0.3048106211	        0.9524129804	        0.5806111842	
       15.0010000000	        0.3086178244	        0.9511861219	        0.5871059830	
       15.0020000000	        0.3124200898	        0.9499440444	        0.5935632073	
       15.0030000000	        0.3162173565	        0.9486867678	        0.5999824437	
       15.0040000000	        0.3200095637	        0.9474143123	        0.6063632814	
       15.0050000000	        0.3237966508	        0.9461266982	        0.6127053121	
       15.0060000000	        0.3275785571	        0.9448239460	        0.6190081299	
       15.0070000000	        0.3313552222	        0.9435060767	        0.6252713313	
       15.0080000000	        0.3351265856	        0.9421731113	        0.6314945156	
       15.0090000000	        0.3388925870	        0.9408250711	        0.6376772845	
       15.0100000000	        0.3426531661	        0.9394619778	        0.6438192422	
       15.0110000000	        0.3464082627	        0.9380838531	        0.6499199957	
       15.0120000000	        0.3501578169	        0.9366907191	        0.6559791546	
       15.0130000000	        0.3539017685	        0.9352825981	        0.6619963310	
       15.0140000000	        0.3576400577	        0.9338595125	        0.6679711399	
       15.0150000000	        0.3613726247	        0.9324214852	        0.6739031989	
       15.0160000000	        0.3650994097	        0.9309685392	        0.6797921283	
       15.0170000000	        0.3688203531	        0.9295006977	        0.6856375512	
       15.0180000000	        0.3725353955	        0.9280179843	        0.6914390935	
       15.0190000000	        0.3762444772	        0.9265204225	        0.6971963840	
       15.0200000000	        0.3799475391	        0.9250080365	        0.7029090542	
       15.0210000000	        0.3836445218	        0.9234808503	        0.7085767384	
       15.0220000000	        0.3873353662	        0.9219388885	        0.7141990739	
       15.0230000000	        0.3910200132	        0.9203821757	        0.7197757010	
       15.0240000000	        0.3946984039	        0.9188107367	        0.7253062626	
       15.0250000000	        0.3983704795	        0.9172245968	        0.7307904049	
       15.0260000000	        0.4020361812	        0.9156237814	        0.7362277769	
       15.0270000000	        0.4056954502	        0.9140083160	        0.7416180305	
       15.0280000000	        0.4093482282	        0.9123782264	        0.7469608209	
       15.0290000000	        0.4129944566	        0.9107335389	        0.7522558059	
       15.0300000000	        0.4166340771	        0.9090742796	        0.7575026469	
       15.0310000000	        0.4202670314	        0.9074004751	        0.7627010080	
       15.0320000000	        0.4238932615	        0.9057121523	        0.7678505565	
       15.0330000000	        0.4275127093	        0.9040093381	        0.7729509628	
       15.0340000000	        0.4311253169	        0.9022920598	        0.7780019005	
       15.0350000000	        0.4347310265	        0.9005603448	        0.7830030463	
       15.0360000000	        0.4383297805	        0.8988142208	        0.7879540802	
       15.0370000000	        0.4419215211	        0.8970537159	        0.7928546853	
       15.0380000000	        0.4455061911	        0.8952788581	        0.7977045480	
       15.0390000000	        0.4490837329	        0.8934896758	        0.8025033579	
       15.0400000000	        0.4526540894	        0.8916861978	        0.8072508078	
       15.0410000000	        0.4562172035	        0.8898684528	        0.8119465940	
       15.0420000000	        0.4597730180	        0.8880364699	        0.8165904158	
       15.0430000000	        0.4633214763	        0.8861902785	        0.8211819761	
       15.0440000000	        0.4668625214	        0.8843299080	        0.8257209811	
       15.0450000000	        0.4703960967	        0.8824553882	        0.8302071402	
       15.0460000000	        0.4739221457	        0.8805667492	        0.8346401664	
       15.0470000000	        0.4774406119	        0.8786640212	        0.8390197758	
       15.0480000000	        0.4809514391	        0.8767472345	        0.8433456883	
       15.0490000000	        0.4844545711	        0.8748164199	        0.8476176269	
       15.0500000000	        0.4879499518	        0.8728716083	        0.8518353183	
       15.0510000000	        0.4914375253	        0.8709128307	        0.8559984926	
       15.0520000000	        0.4949172358	        0.8689401186	        0.8601068832	
       15.0530000000	        0.4983890277	        0.8669535034	        0.8641602273	
       15.0540000000	        0.5018528454	        0.8649530170	        0.8681582654	
       15.0550000000	        0.5053086334	        0.8629386913	        0.8721007417	
       15.0560000000	        0.5087563365	        0.8609105587	        0.8759874038	
       15.0570000000	        0.5121958995	        0.8588686515	        0.8798180030	
       15.0580000000	        0.5156272674	        0.8568130024	        0.8835922942	
       15.0590000000	        0.5190503852	        0.8547436444	        0.8873100358	
       15.0600000000	        0.5224651983	        0.8526606104	        0.8909709898	
       15.0610000000	        0.5258716519	        0.8505639339	        0.8945749220	
       15.0620000000	        0.5292696916	        0.8484536484	        0.8981216017	
       15.0630000000	        0.5326592630	        0.8463297877	        0.9016108020	
       15.0640000000	        0.5360403119	        0.8441923857	        0.9050422994	
       15.0650000000	        0.5394127841	        0.8420414766	        0.9084158745	
       15.0660000000	        0.5427766257	        0.8398770949	        0.9117313112	
       15.0670000000	        0.5461317829	        0.8376992752	        0.9149883975	
       15.0680000000	        0.5494782021	        0.8355080523	        0.9181869248	
       15.0690000000	        0.5528158295	        0.8333034613	        0.9213266884	
       15.0700000000	        0.5561446120	        0.8310855375	        0.9244074875	
       15.0710000000	        0.5594644961	        0.8288543163	        0.9274291248	
       15.0720000000	        0.5627754288	        0.8266098334	        0.9303914069	
       15.0730000000	        0.5660773571	        0.8243521248	        0.9332941444	
       15.0740000000	        0.5693702282	        0.8220812266	        0.9361371513	
       15.0750000000	        0.5726539894	        0.8197971752	        0.9389202457	
       15.0760000000	        0.5759285881	        0.8175000069	        0.9416432496	
       15.0770000000	        0.5791939720	        0.8151897587	        0.9443059886	
       15.0780000000	        0.5824500888	        0.8128664675	        0.9469082924	
       15.0790000000	        0.5856968864	        0.8105301705	        0.9494499944	
       15.0800000000	        0.5889343129	        0.8081809049	        0.9519309319	
       15.0810000000	        0.5921623164	        0.8058187085	        0.9543509461	
       15.0820000000	        0.5953808454	        0.8034436190	        0.9567098822	
       15.0830000000	        0.5985898482	        0.8010556745	        0.9590075892	
       15.0840000000	        0.6017892737	        0.7986549130	        0.9612439200	
       15.0850000000	        0.6049790705	        0.7962413731	        0.9634187316	
       15.0860000000	        0.6081591877	        0.7938150934	        0.9655318847	
       15.0870000000	        0.6113295743	        0.7913761126	        0.9675832441	
       15.0880000000	        0.6144901797	        0.7889244698	        0.9695726784	
       15.0890000000	        0.6176409532	        0.7864602043	        0.9715000605	
       15.0900000000	        0.6207818445	        0.7839833554	        0.9733652669	
       15.0910000000	        0.6239128034	        0.7814939627	        0.9751681782	
       15.0920000000	        0.6270337796	        0.7789920662	        0.9769086791	
       15.0930000000	        0.6301447233	        0.7764777059	        0.9785866582	
       15.0940000000	        0.6332455847	        0.7739509219	        0.9802020081	
       15.0950000000	        0.6363363141	        0.7714117547	        0.9817546254	
       15.0960000000	        0.6394168622	        0.7688602450	        0.9832444107	
       15.0970000000	        0.6424871797	        0.7662964335	        0.9846712687	
       15.0980000000	        0.6455472174	        0.7637203612	        0.9860351081	
       15.0990000000	        0.6485969263	        0.7611320695	        0.9873358415	
       15.1000000000	        0.6516362577	        0.7585315997	        0.9885733859	
       15.1010000000	        0.6546651629	        0.7559189933	        0.9897476618	
       15.1020000000	        0.6576835935	        0.7532942923	        0.9908585943	
       15.1030000000	        0.6606915012	        0.7506575386	        0.9919061121	
       15.1040000000	        0.6636888378	        0.7480087744	        0.9928901483	
       15.1050000000	        0.6666755554	        0.7453480421	        0.9938106398	
       15.1060000000	        0.6696516062	        0.7426753842	        0.9946675279	
       15.1070000000	        0.6726169426	        0.7399908435	        0.9954607575	
       15.1080000000	        0.6755715172	        0.7372944630	        0.9961902780	
       15.1090000000	        0.6785152826	        0.7345862858	        0.9968560426	
       15.1100000000	        0.6814481918	        0.7318663552	        0.9974580088	
       15.1110000000	        0.6843701978	        0.7291347148	        0.9979961380	
       15.1120000000	        0.6872812540	        0.7263914082	        0.9984703958	
       15.1130000000	        0.6901813136	        0.7236364794	        0.9988807519	
       15.1140000000	        0.6930703304	        0.7208699724	        0.9992271799	
       15.1150000000	        0.6959482580	        0.7180919316	        0.9995096577	
       15.1160000000	        0.6988150505	        0.7153024012	        0.9997281673	
